<?xml version="1.0" encoding="utf-8"?>
<!-- Generator: Adobe Illustrator 19.2.1, SVG Export Plug-In . SVG Version: 6.00 Build 0)  -->
<svg version="1.1" id="layer" xmlns="http://www.w3.org/2000/svg" xmlns:xlink="http://www.w3.org/1999/xlink" x="0px" y="0px"
	 viewBox="0 0 652 652" style="enable-background:new 0 0 652 652;" xml:space="preserve">
<style type="text/css">
	.st0{fill:#231815;}
	.st1{fill-rule:evenodd;clip-rule:evenodd;fill:#231815;}
</style>
<g>
	<path class="st0" d="M85.2,252.5c0,0,2.8-0.1,6.9,0c5.6,0.1,9.8,3.3,9.8,3.3s4.2-2.7,10.5-3.1l5.8,0.1l0,27.3h-7.3v35.3l3.9,3.9
		l-3.9,3.9v37c0,0,7.1,0.2,8.8,0c1.7-0.2,6.8-5.1,8.3-8.8c1.5-3.7,2.3-13.4,2.3-13.4h11.3v53.8h-4.7c-2.7,0-8.6-4.3-8.6-4.3
		s-9.3,4.3-17.6,4.3c-8.3,0-12.1-3.8-12.1-3.8s-3.3,3.1-6.1,3.6c-2.7,0.5-6.8,0.2-6.8,0.2V363H92v-38.8l-4.9-4.9l4.9-4.9v-34.8h-6.8
		V252.5z"/>
	<path class="st0" d="M28.2,327l-7.5-7.5l7.5-7.5v-1v-39.5c0-10.2,8.3-18.5,18.5-18.5h11.5c10.2,0,18.5,8.3,18.5,18.5v41.8v1.4l5,5
		l-5,5v1.3v46.7c0,10.2-8.3,18.5-18.5,18.5H46.6c-10.2,0-18.5-8.3-18.5-18.5v-44.4V327z M44,315.3l4.2,4.2l-4.2,4.2v0.5v33.5
		c0,4.1,3.3,7.4,7.5,7.4c4.1,0,7.4-3.3,7.4-7.4v-33.1v-0.2l-4.9-4.9l4.9-4.9v-0.3v-30.9c0-4.1-3.3-7.4-7.5-7.4
		c-4.1,0-7.4,3.3-7.4,7.4v31.3V315.3z"/>
</g>
<g>
	<path class="st0" d="M155.4,324.5l-5.3-5.3l5.3-5.3v-34h-7.8v-27.5c0,0,4.3,0.5,7.9,0.5c4.9,0,8.4,4.4,9.2,5.4
		c3.3-3.3,7.9-5.3,13-5.3h11.5c10.2,0,18.5,8.3,18.5,18.5v43.1l4.8,4.8l-4.8,4.8v48.4c0,10.2-8.3,18.5-18.5,18.5h-11.5
		c-1.6,0-3.1-0.2-4.5-0.6c-0.1,0-0.2,0-0.3,0c-1,0-2.4-0.7-3.7-1.5c-1.1-0.6-2.1-1.2-3-2c-1,0.5-5.8,2.8-8.9,3.7
		c-3.5,1-9.1,0.7-9.1,0.7v-28h7.3V324.5z M173.6,315.1l4.1,4.1l-4.1,4.1v36.5c0,0,6.8-0.2,11.4-0.2c4.6,0,4.6-5.3,4.6-5.3V324
		l-4.8-4.8l4.8-4.8v-28.5c0-4.2-5.3-5.8-5.3-5.8c-6.6-0.8-10.2-0.8-10.6,0.2V315.1z"/>
	<path class="st0" d="M245.2,252.8c0,0,5.1-0.5,7.6-0.5c2.5,0,6.6,4,6.6,4s1.3-4.7,17.5-4.7c16.1,0,18,5.2,18,5.2s3.5-2.7,6.3-3.7
		c2.8-1,5.6-0.8,5.6-0.8v53.8H295c0,0,0.5-8.9-1-18c-1.5-9.1-9.4-11.1-9.4-11.1v37.9l5,5l-5,5V363h8.3v29c0,0-3.7,0.2-6.8,0
		c-3.1-0.2-9.6-4.1-9.6-4.1s-6.1,2.3-8.6,3.3c-2.5,1-8.6,0.5-8.6,0.5V363h7.3v-38.5l-4.6-4.6l4.6-4.6v-37.7c0,0-3.9,1.8-6.9,8.4
		c-3.1,6.6-2.9,19.9-2.9,19.9h-11.6V252.8z"/>
	<path class="st0" d="M312.4,252.3c0,0,5.1-0.2,8.9,0.3c3.8,0.5,8.6,3.7,8.6,3.7s3.3-2.2,6.6-3c3.2-0.7,9.1-1.3,9.1-1.3v27.8h-8.1
		v34.6l4.5,4.5l-4.5,4.5v39.2h7.8v29.1h-7.6c-3.6,0-7.8-3.6-7.8-3.6s-4.6,2.6-7.8,3.1c-3.2,0.5-9.6,0.2-9.6,0.2v-28h6.8v-39.7
		l-4.9-4.9l4.9-4.9v-34.3h-6.8V252.3z"/>
	<path class="st1" d="M355.2,252.5v27h7.6v35.6l-4.8,4.1l4.1,3.5v40.8h-7.3v27.8c0,0,5.7,0.2,8.8-0.5c3.1-0.7,8.3-2.6,8.3-2.6
		s5.9,3.6,9.2,3.6h6.8v-29.4h-8.1v-61.9l17.6,91.5h10.9l16.4-92.3v63.5h-8.1v28.5c0,0,3.9,1,8.4-0.2c4.5-1.2,8.1-3.6,8.1-3.6
		s4.6,3.1,7.8,3.6c3.2,0.5,8.1,0.2,8.1,0.2V363h-8.3v-39.2l3.7-4.8l-4.5-2.8v-36.4h9.3v-27.5c0,0-11.1,3.2-14.6,2.7
		c-3.6-0.5-11.1-2.5-13.6-2.5s-4.6,2.2-4.6,4.5c0,2.3-14.4,74.9-14.4,74.9l-13.4-76.1c0,0-1.3-3.7-3.8-3.7c-2.5,0-8.1,2.7-12.6,2.7
		c-4.5,0-11.6-2.5-13.1-2.5C357.4,252.3,355.2,252.5,355.2,252.5"/>
	<path class="st0" d="M484.2,279.6v35.1h19.2V329h-19.2v34.5h9.7c0,0,5.3-0.6,7.5-7.8c1.5-5,3.4-18.8,3.4-18.8h12.3v54.2h-9.7
		c0,0-3.4-3.5-5-3.5c-1.6,0-6.6,3.8-13.1,3.8c-6.6,0-10.9-4.8-14.4-4.8c-3.5,0-6,3.2-8.5,3.8c-2.4,0.6-6.6,0-6.6,0v-26.9h6.9v-36.8
		l-6.5-6.5l6.5-6.5v-34.2h-7.2v-26.9c0,0,4.1-0.6,6.6,0c2.4,0.6,5,3.8,8.5,3.8c3.5,0,7.8-4.8,14.4-4.8c6.6,0,11.6,3.8,13.1,3.8
		c1.6,0,5-3.5,5-3.5h9.7v54.2h-12.3c0,0-1.9-13.8-3.4-18.8c-2.3-7.5-7.5-7.8-7.5-7.8H484.2z"/>
	<path class="st0" d="M554.1,312.4c0,0,8.2,0.6,11.6-1.9c3.4-2.5,7.8-5.9,7.8-14.6c0-8.7-2.5-13.8-7.2-16.3
		c-4.7-2.5-12.2-0.6-12.2-0.6V312.4z M535.7,325.8l-5.5-5.5l5.5-5.5l-0.3-34.9H529v-27.3c0,0,3.7,0.1,6.6,0.1c2.8,0,8.4,3.5,8.4,3.5
		s2.2-2.5,3.5-3.1c1.3-0.6,5-1.3,5-1.3h16.6c16.2,0,19.1,17.9,19.1,17.9v18.6l4.5,4.5l-4.5,4.5v5.9c0,14.4-7.5,17.2-7.5,17.2
		s4.9,3,6.1,5.5c1.6,3,2,7.1,2,7.1v19.4c0,10.9,9.7,11.2,9.7,11.2v28.5h-12.8c-12.2,0-14.4-20-14.4-23.8c0-3.7-0.3-28.2-0.3-35.7
		c0-7.5-16.5-5.9-16.9-5.9c-0.3,0-0.1,36.4-0.1,36.4h8.9v29.4c0,0-4.1,0-7.5-0.3c-3.4-0.3-9.7-4-9.7-4s-6.3,2.8-9.3,3.7
		c-3.1,1-8.2,0-8.2,0v-29.1h7.5L535.7,325.8z"/>
</g>
<g>
	<path class="st1" d="M611.3,380.7v2.6h1.9c0.5,0,0.9-0.1,1.2-0.3c0.3-0.2,0.4-0.5,0.4-0.9c0-0.4-0.2-0.8-0.5-1
		c-0.3-0.2-0.9-0.3-1.6-0.3H611.3z M609.9,379.6h3c1.1,0,1.9,0.2,2.5,0.6c0.6,0.4,0.9,1,0.9,1.7c0,0.5-0.2,1-0.5,1.4
		c-0.3,0.4-0.8,0.7-1.3,0.8l1.8,3.8h-1.5l-1.7-3.6h-1.8v3.6h-1.4V379.6z M613,377.3c-1.8,0-3.4,0.6-4.6,1.9
		c-1.3,1.3-1.9,2.8-1.9,4.6c0,1.8,0.6,3.4,1.9,4.6c1.3,1.3,2.8,1.9,4.6,1.9c1.8,0,3.3-0.6,4.6-1.9c1.3-1.3,1.9-2.8,1.9-4.6
		c0-1.8-0.6-3.4-1.9-4.6C616.3,377.9,614.8,377.3,613,377.3 M605.4,383.8c0-2.1,0.7-3.9,2.2-5.4c1.5-1.5,3.3-2.2,5.4-2.2
		c2.1,0,3.9,0.7,5.4,2.2c1.5,1.5,2.2,3.3,2.2,5.4c0,2.1-0.7,3.9-2.2,5.4s-3.3,2.2-5.4,2.2c-2.1,0-3.9-0.7-5.4-2.2
		C606.1,387.7,605.4,385.9,605.4,383.8"/>
</g>
</svg>
